FILE "Flashback - The Quest for Identity (demo) (1994)(U.S. Gold)(EU)(en).img" BINARY
  TRACK 01 MODE1/2352
    INDEX 01 00:00:00
  TRACK 02 AUDIO
    PREGAP 00:02:00
    INDEX 01 06:11:39
  TRACK 03 AUDIO
    INDEX 01 09:35:55
